<mxfile host="Electron" modified="2023-12-11T04:24:55.681Z" agent="Mozilla/5.0 (Macintosh; Intel Mac OS X 10_15_7) AppleWebKit/537.36 (KHTML, like Gecko) draw.io/22.1.2 Chrome/114.0.5735.289 Electron/25.9.4 Safari/537.36" etag="4lz4eAEQhUcEE60Vbj5r" version="22.1.2" type="device">
  <diagram name="Page-1" id="bd83a815-5ea8-2e97-e5ec-87c9f400f2fa">
    <mxGraphModel dx="3060" dy="2240" grid="1" gridSize="10" guides="1" tooltips="1" connect="1" arrows="1" fold="1" page="1" pageScale="1.5" pageWidth="1169" pageHeight="826" background="none" math="0" shadow="0">
      <root>
        <mxCell id="0" style=";html=1;" />
        <mxCell id="1" style=";html=1;" parent="0" />
        <mxCell id="2d96-e03zmschCOmI71J-3" value="" style="rounded=1;whiteSpace=wrap;html=1;fillColor=#1ba1e2;fontColor=#ffffff;strokeColor=#006EAF;" vertex="1" parent="1">
          <mxGeometry x="280" y="800" width="2120" height="1960" as="geometry" />
        </mxCell>
        <mxCell id="PFoyvJo9N_6fbS8RpTb8-92" value="" style="rounded=0;whiteSpace=wrap;html=1;" parent="1" vertex="1">
          <mxGeometry x="440" y="1200" width="1680" height="320" as="geometry" />
        </mxCell>
        <mxCell id="PFoyvJo9N_6fbS8RpTb8-90" value="" style="rounded=0;whiteSpace=wrap;html=1;" parent="1" vertex="1">
          <mxGeometry width="1840" height="680" as="geometry" />
        </mxCell>
        <mxCell id="PFoyvJo9N_6fbS8RpTb8-2" value="" style="rounded=1;whiteSpace=wrap;html=1;" parent="1" vertex="1">
          <mxGeometry x="40" y="40" width="320" height="280" as="geometry" />
        </mxCell>
        <mxCell id="PFoyvJo9N_6fbS8RpTb8-3" value="&lt;h1&gt;Select EnterPrise&lt;/h1&gt;&lt;p&gt;Create a Drop Down List.&lt;br&gt;Add a button to Select an Enterprise.&lt;/p&gt;" style="text;html=1;strokeColor=none;fillColor=none;spacing=5;spacingTop=-20;whiteSpace=wrap;overflow=hidden;rounded=0;" parent="1" vertex="1">
          <mxGeometry x="50" y="50" width="300" height="120" as="geometry" />
        </mxCell>
        <mxCell id="PFoyvJo9N_6fbS8RpTb8-4" value="" style="rounded=1;whiteSpace=wrap;html=1;" parent="1" vertex="1">
          <mxGeometry x="400" y="40" width="320" height="280" as="geometry" />
        </mxCell>
        <mxCell id="PFoyvJo9N_6fbS8RpTb8-5" value="&lt;h1&gt;EnterPrise 1&lt;/h1&gt;&lt;p&gt;Create a Drop Down List.&lt;br&gt;Add a button to Select an Organization&lt;span style=&quot;background-color: initial;&quot;&gt;.&lt;/span&gt;&lt;/p&gt;" style="text;html=1;strokeColor=none;fillColor=none;spacing=5;spacingTop=-20;whiteSpace=wrap;overflow=hidden;rounded=0;" parent="1" vertex="1">
          <mxGeometry x="410" y="50" width="300" height="120" as="geometry" />
        </mxCell>
        <mxCell id="PFoyvJo9N_6fbS8RpTb8-8" value="" style="rounded=1;whiteSpace=wrap;html=1;" parent="1" vertex="1">
          <mxGeometry x="760" y="40" width="320" height="280" as="geometry" />
        </mxCell>
        <mxCell id="PFoyvJo9N_6fbS8RpTb8-9" value="&lt;h1&gt;EnterPrise 2&lt;/h1&gt;&lt;p&gt;Create a Drop Down List.&lt;br&gt;Add a button to Select an Organization&lt;span style=&quot;background-color: initial;&quot;&gt;.&lt;/span&gt;&lt;/p&gt;" style="text;html=1;strokeColor=none;fillColor=none;spacing=5;spacingTop=-20;whiteSpace=wrap;overflow=hidden;rounded=0;" parent="1" vertex="1">
          <mxGeometry x="770" y="50" width="300" height="120" as="geometry" />
        </mxCell>
        <mxCell id="PFoyvJo9N_6fbS8RpTb8-10" value="" style="rounded=1;whiteSpace=wrap;html=1;" parent="1" vertex="1">
          <mxGeometry x="1120" y="40" width="320" height="280" as="geometry" />
        </mxCell>
        <mxCell id="PFoyvJo9N_6fbS8RpTb8-11" value="&lt;h1&gt;EnterPrise 3&lt;/h1&gt;&lt;p&gt;Create a Drop Down List.&lt;br&gt;Add a button to Select an Organization&lt;span style=&quot;background-color: initial;&quot;&gt;.&lt;/span&gt;&lt;/p&gt;" style="text;html=1;strokeColor=none;fillColor=none;spacing=5;spacingTop=-20;whiteSpace=wrap;overflow=hidden;rounded=0;" parent="1" vertex="1">
          <mxGeometry x="1130" y="50" width="300" height="120" as="geometry" />
        </mxCell>
        <mxCell id="PFoyvJo9N_6fbS8RpTb8-12" value="" style="rounded=1;whiteSpace=wrap;html=1;" parent="1" vertex="1">
          <mxGeometry x="1480" y="40" width="320" height="280" as="geometry" />
        </mxCell>
        <mxCell id="PFoyvJo9N_6fbS8RpTb8-13" value="&lt;h1&gt;EnterPrise 4&lt;/h1&gt;&lt;p&gt;Create a Drop Down List.&lt;br&gt;Add a button to Select an Organization&lt;span style=&quot;background-color: initial;&quot;&gt;.&lt;/span&gt;&lt;/p&gt;" style="text;html=1;strokeColor=none;fillColor=none;spacing=5;spacingTop=-20;whiteSpace=wrap;overflow=hidden;rounded=0;" parent="1" vertex="1">
          <mxGeometry x="1490" y="50" width="300" height="120" as="geometry" />
        </mxCell>
        <mxCell id="PFoyvJo9N_6fbS8RpTb8-14" value="" style="rounded=1;whiteSpace=wrap;html=1;" parent="1" vertex="1">
          <mxGeometry x="400" y="360" width="320" height="280" as="geometry" />
        </mxCell>
        <mxCell id="PFoyvJo9N_6fbS8RpTb8-15" value="&lt;h1&gt;Organization 1&lt;/h1&gt;&lt;p&gt;Create a Drop Down List.&lt;br&gt;Add a button to Select an Roles&lt;span style=&quot;background-color: initial;&quot;&gt;.&lt;/span&gt;&lt;/p&gt;" style="text;html=1;strokeColor=none;fillColor=none;spacing=5;spacingTop=-20;whiteSpace=wrap;overflow=hidden;rounded=0;" parent="1" vertex="1">
          <mxGeometry x="410" y="370" width="300" height="120" as="geometry" />
        </mxCell>
        <mxCell id="PFoyvJo9N_6fbS8RpTb8-16" value="" style="rounded=1;whiteSpace=wrap;html=1;" parent="1" vertex="1">
          <mxGeometry x="760" y="360" width="320" height="280" as="geometry" />
        </mxCell>
        <mxCell id="PFoyvJo9N_6fbS8RpTb8-17" value="&lt;h1&gt;Organization 2&lt;/h1&gt;&lt;p&gt;Create a Drop Down List.&lt;br&gt;Add a button to Select an Roles&lt;span style=&quot;background-color: initial;&quot;&gt;.&lt;/span&gt;&lt;/p&gt;" style="text;html=1;strokeColor=none;fillColor=none;spacing=5;spacingTop=-20;whiteSpace=wrap;overflow=hidden;rounded=0;" parent="1" vertex="1">
          <mxGeometry x="770" y="370" width="300" height="120" as="geometry" />
        </mxCell>
        <mxCell id="PFoyvJo9N_6fbS8RpTb8-18" value="" style="rounded=1;whiteSpace=wrap;html=1;" parent="1" vertex="1">
          <mxGeometry x="1120" y="360" width="320" height="280" as="geometry" />
        </mxCell>
        <mxCell id="PFoyvJo9N_6fbS8RpTb8-19" value="&lt;h1&gt;Organization 3&lt;/h1&gt;&lt;p&gt;Create a Drop Down List.&lt;br&gt;Add a button to Select an Roles&lt;span style=&quot;background-color: initial;&quot;&gt;.&lt;/span&gt;&lt;/p&gt;" style="text;html=1;strokeColor=none;fillColor=none;spacing=5;spacingTop=-20;whiteSpace=wrap;overflow=hidden;rounded=0;" parent="1" vertex="1">
          <mxGeometry x="1130" y="370" width="300" height="120" as="geometry" />
        </mxCell>
        <mxCell id="PFoyvJo9N_6fbS8RpTb8-20" value="" style="rounded=1;whiteSpace=wrap;html=1;" parent="1" vertex="1">
          <mxGeometry x="1480" y="360" width="320" height="280" as="geometry" />
        </mxCell>
        <mxCell id="PFoyvJo9N_6fbS8RpTb8-21" value="&lt;h1&gt;Organization 4&lt;/h1&gt;&lt;p&gt;Create a Drop Down List.&lt;br&gt;Add a button to Select an Roles&lt;span style=&quot;background-color: initial;&quot;&gt;.&lt;/span&gt;&lt;/p&gt;" style="text;html=1;strokeColor=none;fillColor=none;spacing=5;spacingTop=-20;whiteSpace=wrap;overflow=hidden;rounded=0;" parent="1" vertex="1">
          <mxGeometry x="1490" y="370" width="300" height="120" as="geometry" />
        </mxCell>
        <mxCell id="PFoyvJo9N_6fbS8RpTb8-22" value="" style="shape=process;whiteSpace=wrap;html=1;backgroundOutline=1;" parent="1" vertex="1">
          <mxGeometry x="480" y="1239" width="440" height="251" as="geometry" />
        </mxCell>
        <mxCell id="PFoyvJo9N_6fbS8RpTb8-23" value="&lt;h1 style=&quot;text-align: center;&quot;&gt;Login Page&lt;/h1&gt;&lt;p&gt;&lt;/p&gt;&lt;ol&gt;&lt;li&gt;Create a UserName &amp;amp; Password txtFields, lblFields etc.&lt;/li&gt;&lt;li&gt;Add a button to Login the selected role&lt;span style=&quot;background-color: initial;&quot;&gt;.&lt;/span&gt;&lt;/li&gt;&lt;li&gt;&lt;span style=&quot;background-color: initial;&quot;&gt;SignUp Button Page&lt;/span&gt;&lt;/li&gt;&lt;/ol&gt;&lt;p&gt;&lt;/p&gt;" style="text;html=1;strokeColor=none;fillColor=none;spacing=5;spacingTop=-20;whiteSpace=wrap;overflow=hidden;rounded=0;fontColor=#66B2FF;" parent="1" vertex="1">
          <mxGeometry x="545" y="1270" width="310" height="120" as="geometry" />
        </mxCell>
        <mxCell id="PFoyvJo9N_6fbS8RpTb8-24" value="" style="rounded=1;whiteSpace=wrap;html=1;" parent="1" vertex="1">
          <mxGeometry x="440" y="2120.5" width="320" height="201" as="geometry" />
        </mxCell>
        <mxCell id="PFoyvJo9N_6fbS8RpTb8-25" value="&lt;h1&gt;Organization 1&lt;br&gt;Role 1(Hotel Manager)&lt;br&gt;(WorkArea) &lt;i&gt;[LP]&lt;/i&gt;&lt;/h1&gt;&lt;p&gt;Add Functionality&lt;br&gt;&lt;u&gt;WorkRes:&lt;/u&gt;&lt;br&gt;Manage Staff&lt;br&gt;Buy Hospitality Supplies&lt;br&gt;Recruit Graduated Students&lt;br&gt;&lt;br&gt;&lt;/p&gt;" style="text;html=1;strokeColor=none;fillColor=none;spacing=5;spacingTop=-20;whiteSpace=wrap;overflow=hidden;rounded=0;fontColor=#66B2FF;" parent="1" vertex="1">
          <mxGeometry x="450" y="2130.5" width="300" height="181" as="geometry" />
        </mxCell>
        <mxCell id="PFoyvJo9N_6fbS8RpTb8-42" value="" style="rounded=1;whiteSpace=wrap;html=1;" parent="1" vertex="1">
          <mxGeometry x="1520" y="2120" width="320" height="201.5" as="geometry" />
        </mxCell>
        <mxCell id="PFoyvJo9N_6fbS8RpTb8-43" value="&lt;h1&gt;Organization 4&lt;br&gt;Role 1(Professor)&lt;br&gt;(WorkArea) &lt;i&gt;[LP]&lt;/i&gt;&lt;/h1&gt;&lt;p&gt;Add Functionality&lt;br&gt;&lt;u&gt;WorkRes:&lt;/u&gt;&lt;br&gt;Manage Course&lt;br&gt;Create Course&lt;/p&gt;" style="text;html=1;strokeColor=none;fillColor=none;spacing=5;spacingTop=-20;whiteSpace=wrap;overflow=hidden;rounded=0;fontColor=#66B2FF;" parent="1" vertex="1">
          <mxGeometry x="1530" y="2130" width="300" height="181.5" as="geometry" />
        </mxCell>
        <mxCell id="PFoyvJo9N_6fbS8RpTb8-52" value="" style="rounded=1;whiteSpace=wrap;html=1;" parent="1" vertex="1">
          <mxGeometry x="1520" y="2441.5" width="320" height="201.5" as="geometry" />
        </mxCell>
        <mxCell id="PFoyvJo9N_6fbS8RpTb8-53" value="&lt;h1&gt;Organization 4&lt;br&gt;Role 2(Student)&lt;br&gt;(WorkArea) &lt;i&gt;[LP]&lt;/i&gt;&lt;/h1&gt;&lt;p&gt;Add Functionality&lt;br&gt;&lt;u&gt;WorkRes:&lt;/u&gt;&lt;br&gt;View Registered Courses&lt;br&gt;Course Registration&lt;br&gt;Graduation Application&lt;/p&gt;" style="text;html=1;strokeColor=none;fillColor=none;spacing=5;spacingTop=-20;whiteSpace=wrap;overflow=hidden;rounded=0;fontColor=#66B2FF;" parent="1" vertex="1">
          <mxGeometry x="1530" y="2451.5" width="300" height="181.5" as="geometry" />
        </mxCell>
        <mxCell id="PFoyvJo9N_6fbS8RpTb8-54" value="" style="rounded=1;whiteSpace=wrap;html=1;" parent="1" vertex="1">
          <mxGeometry x="800" y="2120.75" width="320" height="200.5" as="geometry" />
        </mxCell>
        <mxCell id="PFoyvJo9N_6fbS8RpTb8-55" value="&lt;h1&gt;Organization 2&lt;br&gt;Role 2(Sales Rep)&lt;br&gt;(WorkArea)&amp;nbsp;&lt;i&gt;[LP]&lt;/i&gt;&lt;/h1&gt;&lt;p&gt;Add Functionality&lt;br&gt;&lt;u&gt;WorkRes:&lt;/u&gt;&lt;br&gt;Manage Products (Create, View, Delete)&lt;br&gt;View PO&lt;/p&gt;" style="text;html=1;strokeColor=none;fillColor=none;spacing=5;spacingTop=-20;whiteSpace=wrap;overflow=hidden;rounded=0;fontColor=#66B2FF;" parent="1" vertex="1">
          <mxGeometry x="810" y="2130.75" width="300" height="180.5" as="geometry" />
        </mxCell>
        <mxCell id="PFoyvJo9N_6fbS8RpTb8-56" value="" style="rounded=1;whiteSpace=wrap;html=1;" parent="1" vertex="1">
          <mxGeometry x="440" y="2441" width="320" height="201" as="geometry" />
        </mxCell>
        <mxCell id="PFoyvJo9N_6fbS8RpTb8-57" value="&lt;h1&gt;Organization 1&lt;br&gt;Role 2(Front Desk Staff&lt;br&gt;(WorkArea) &lt;i&gt;[LP]&lt;/i&gt;&lt;/h1&gt;&lt;p&gt;Add Functionality&lt;br&gt;&lt;u style=&quot;&quot;&gt;WorkRes:&lt;/u&gt;&lt;br&gt;View All Bookings&lt;br&gt;Book Room For Customer&lt;/p&gt;" style="text;html=1;strokeColor=none;fillColor=none;spacing=5;spacingTop=-20;whiteSpace=wrap;overflow=hidden;rounded=0;fontColor=#66B2FF;" parent="1" vertex="1">
          <mxGeometry x="450" y="2451" width="300" height="181" as="geometry" />
        </mxCell>
        <mxCell id="PFoyvJo9N_6fbS8RpTb8-60" value="" style="rounded=1;whiteSpace=wrap;html=1;" parent="1" vertex="1">
          <mxGeometry x="440" y="1800" width="1400" height="201" as="geometry" />
        </mxCell>
        <mxCell id="PFoyvJo9N_6fbS8RpTb8-61" value="&lt;h1&gt;Admin&lt;br&gt;(LP)&lt;/h1&gt;&lt;p&gt;&lt;/p&gt;&lt;div style=&quot;text-align: left;&quot;&gt;&lt;span style=&quot;background-color: initial;&quot;&gt;Add Functionality&lt;/span&gt;&lt;/div&gt;&lt;div style=&quot;text-align: left;&quot;&gt;&lt;span style=&quot;background-color: initial;&quot;&gt;TODO:&lt;/span&gt;&lt;/div&gt;&lt;p&gt;&lt;/p&gt;" style="text;html=1;strokeColor=none;fillColor=none;spacing=5;spacingTop=-20;whiteSpace=wrap;overflow=hidden;rounded=0;align=center;fontColor=#66B2FF;" parent="1" vertex="1">
          <mxGeometry x="1060" y="1850" width="160" height="110" as="geometry" />
        </mxCell>
        <mxCell id="PFoyvJo9N_6fbS8RpTb8-91" value="&lt;font style=&quot;font-size: 24px;&quot;&gt;Not UI Pages&lt;br&gt;&lt;/font&gt;" style="text;html=1;strokeColor=none;fillColor=none;align=center;verticalAlign=middle;whiteSpace=wrap;rounded=0;" parent="1" vertex="1">
          <mxGeometry x="40" y="340" width="320" height="300" as="geometry" />
        </mxCell>
        <mxCell id="PFoyvJo9N_6fbS8RpTb8-93" value="" style="rounded=1;whiteSpace=wrap;html=1;" parent="1" vertex="1">
          <mxGeometry x="960" y="1239" width="1120" height="251" as="geometry" />
        </mxCell>
        <mxCell id="PFoyvJo9N_6fbS8RpTb8-96" value="" style="rounded=1;whiteSpace=wrap;html=1;" parent="1" vertex="1">
          <mxGeometry x="440" y="1560" width="1400" height="201" as="geometry" />
        </mxCell>
        <mxCell id="PFoyvJo9N_6fbS8RpTb8-97" value="&lt;h1&gt;SignUp&lt;br&gt;Page&lt;/h1&gt;&lt;p&gt;&lt;/p&gt;&lt;div style=&quot;text-align: left;&quot;&gt;&lt;span style=&quot;background-color: initial;&quot;&gt;Add Functionality&lt;/span&gt;&lt;/div&gt;&lt;div style=&quot;text-align: left;&quot;&gt;&lt;span style=&quot;background-color: initial;&quot;&gt;TODO:&lt;/span&gt;&lt;/div&gt;&lt;p&gt;&lt;/p&gt;" style="text;html=1;strokeColor=none;fillColor=none;spacing=5;spacingTop=-20;whiteSpace=wrap;overflow=hidden;rounded=0;align=center;fontColor=#66B2FF;" parent="1" vertex="1">
          <mxGeometry x="1060" y="1605.5" width="160" height="110" as="geometry" />
        </mxCell>
        <mxCell id="PFoyvJo9N_6fbS8RpTb8-104" value="" style="shape=singleArrow;whiteSpace=wrap;html=1;" parent="1" vertex="1">
          <mxGeometry x="2080" y="1340" width="120" height="40" as="geometry" />
        </mxCell>
        <mxCell id="PFoyvJo9N_6fbS8RpTb8-106" value="" style="rounded=0;whiteSpace=wrap;html=1;" parent="1" vertex="1">
          <mxGeometry x="2200" y="1340" width="20" height="1100" as="geometry" />
        </mxCell>
        <mxCell id="PFoyvJo9N_6fbS8RpTb8-108" value="" style="shape=singleArrow;direction=west;whiteSpace=wrap;html=1;" parent="1" vertex="1">
          <mxGeometry x="1840" y="1640.5" width="360" height="40" as="geometry" />
        </mxCell>
        <mxCell id="PFoyvJo9N_6fbS8RpTb8-109" value="" style="shape=singleArrow;direction=west;whiteSpace=wrap;html=1;" parent="1" vertex="1">
          <mxGeometry x="1840" y="1880.5" width="360" height="40" as="geometry" />
        </mxCell>
        <mxCell id="PFoyvJo9N_6fbS8RpTb8-126" value="" style="shape=flexArrow;endArrow=none;startArrow=none;html=1;rounded=0;startFill=0;endFill=0;fillColor=default;" parent="1" edge="1">
          <mxGeometry width="100" height="100" relative="1" as="geometry">
            <mxPoint x="560" y="2361" as="sourcePoint" />
            <mxPoint x="2200" y="2361" as="targetPoint" />
          </mxGeometry>
        </mxCell>
        <mxCell id="PFoyvJo9N_6fbS8RpTb8-127" value="" style="shape=singleArrow;direction=south;whiteSpace=wrap;html=1;" parent="1" vertex="1">
          <mxGeometry x="1665" y="2361" width="30" height="79" as="geometry" />
        </mxCell>
        <mxCell id="PFoyvJo9N_6fbS8RpTb8-130" value="" style="shape=singleArrow;direction=south;whiteSpace=wrap;html=1;" parent="1" vertex="1">
          <mxGeometry x="585" y="2361" width="30" height="79" as="geometry" />
        </mxCell>
        <mxCell id="PFoyvJo9N_6fbS8RpTb8-131" value="" style="rounded=1;whiteSpace=wrap;html=1;" parent="1" vertex="1">
          <mxGeometry x="1160" y="2120.75" width="320" height="200" as="geometry" />
        </mxCell>
        <mxCell id="PFoyvJo9N_6fbS8RpTb8-132" value="&lt;h1&gt;Organization 3&lt;br&gt;Role 2(Customer)&lt;br&gt;(WorkArea) &lt;i&gt;[LP]&lt;/i&gt;&lt;/h1&gt;&lt;p&gt;Add Functionality&lt;br&gt;&lt;u&gt;WorkRes:&lt;br&gt;&lt;/u&gt;Book A Room&lt;br&gt;My Bookings&lt;/p&gt;" style="text;html=1;strokeColor=none;fillColor=none;spacing=5;spacingTop=-20;whiteSpace=wrap;overflow=hidden;rounded=0;fontColor=#66B2FF;" parent="1" vertex="1">
          <mxGeometry x="1170" y="2130.75" width="300" height="180" as="geometry" />
        </mxCell>
        <mxCell id="2d96-e03zmschCOmI71J-1" value="&lt;h1&gt;WorkArea&lt;/h1&gt;&lt;p&gt;&lt;/p&gt;" style="text;html=1;strokeColor=none;fillColor=none;spacing=5;spacingTop=-20;whiteSpace=wrap;overflow=hidden;rounded=0;align=center;fontColor=#66B2FF;" vertex="1" parent="1">
          <mxGeometry x="1480" y="1310" width="160" height="40" as="geometry" />
        </mxCell>
        <mxCell id="2d96-e03zmschCOmI71J-2" value="&lt;font style=&quot;font-size: 34px;&quot;&gt;Business&lt;/font&gt;" style="swimlane;whiteSpace=wrap;html=1;startSize=270;fontColor=#66B2FF;strokeColor=#000000;strokeWidth=10;" vertex="1" parent="1">
          <mxGeometry x="400" y="890" width="1880" height="1790" as="geometry" />
        </mxCell>
        <mxCell id="PFoyvJo9N_6fbS8RpTb8-112" value="" style="shape=flexArrow;endArrow=none;startArrow=none;html=1;rounded=0;startFill=0;endFill=0;labelBackgroundColor=none;fillColor=#000000;strokeColor=default;" parent="1" edge="1">
          <mxGeometry width="100" height="100" relative="1" as="geometry">
            <mxPoint x="560" y="2040" as="sourcePoint" />
            <mxPoint x="2200" y="2040" as="targetPoint" />
          </mxGeometry>
        </mxCell>
        <mxCell id="PFoyvJo9N_6fbS8RpTb8-125" value="" style="shape=singleArrow;direction=south;whiteSpace=wrap;html=1;" parent="1" vertex="1">
          <mxGeometry x="585" y="2040" width="30" height="79" as="geometry" />
        </mxCell>
        <mxCell id="PFoyvJo9N_6fbS8RpTb8-124" value="" style="shape=singleArrow;direction=south;whiteSpace=wrap;html=1;" parent="1" vertex="1">
          <mxGeometry x="945" y="2040" width="30" height="79" as="geometry" />
        </mxCell>
        <mxCell id="PFoyvJo9N_6fbS8RpTb8-123" value="" style="shape=singleArrow;direction=south;whiteSpace=wrap;html=1;" parent="1" vertex="1">
          <mxGeometry x="1305" y="2040" width="30" height="79" as="geometry" />
        </mxCell>
        <mxCell id="PFoyvJo9N_6fbS8RpTb8-117" value="" style="shape=singleArrow;direction=south;whiteSpace=wrap;html=1;" parent="1" vertex="1">
          <mxGeometry x="1665" y="2040" width="30" height="79" as="geometry" />
        </mxCell>
      </root>
    </mxGraphModel>
  </diagram>
</mxfile>
